<?xml version="1.0" encoding="utf-8"?>
<!-- Generator: Adobe Illustrator 21.0.0, SVG Export Plug-In . SVG Version: 6.00 Build 0)  -->
<svg version="1.1" id="Layer_1" xmlns="http://www.w3.org/2000/svg" xmlns:xlink="http://www.w3.org/1999/xlink" x="0px" y="0px"
	 viewBox="0 0 900 208" style="enable-background:new 0 0 900 208;" xml:space="preserve">
<style type="text/css">
	.st0{fill:#3077B0;}
	.st1{fill:#3889C5;}
	.st2{fill:#3B91CE;}
	.st3{fill:#49B0F1;}
	.st4{fill:#3A8DC9;}
	.st5{fill:#3D94D1;}
	.st6{fill:#44A4E3;}
	.st7{fill:#3E97D5;}
	.st8{fill:#419FDD;}
	.st9{fill:#42A0DF;}
	.st10{fill:#4EBDFF;}
	.st11{fill:#44A6E5;}
	.st12{fill:#3F99D7;}
	.st13{fill:#4AB3F5;}
	.st14{fill:#43A3E2;}
	.st15{fill:#47ACEC;}
	.st16{fill:#49B1F2;}
	.st17{fill:#3178B1;}
	.st18{fill:#3F98D6;}
	.st19{fill:#43A2E1;}
	.st20{fill:#44A4E4;}
	.st21{fill:#4BB7F8;}
	.st22{fill:#46AAEB;}
	.st23{fill:#59D8FF;}
	.st24{fill:#54CAFF;}
	.st25{fill:#50C1FF;}
	.st26{fill:#52C5FF;stroke:#52C5FF;stroke-linejoin:round;stroke-miterlimit:1;}
	.st27{fill:#49B0F1;stroke:#49B0F1;stroke-linejoin:round;stroke-miterlimit:1;}
	.st28{fill:#4EBCFF;stroke:#4EBCFF;stroke-linejoin:round;stroke-miterlimit:1;}
	.st29{fill:#47ADED;stroke:#47ADED;stroke-linejoin:round;stroke-miterlimit:1;}
	.st30{fill:#4BB7F8;stroke:#4BB7F8;stroke-linejoin:round;stroke-miterlimit:1;}
	.st31{fill:#50C1FF;stroke:#50C1FF;stroke-linejoin:round;stroke-miterlimit:1;}
	.st32{fill:#54CAFF;stroke:#54CAFF;stroke-linejoin:round;stroke-miterlimit:1;}
	.st33{fill:#59D8FF;stroke:#59D8FF;stroke-linejoin:round;stroke-miterlimit:1;}
	.st34{fill:#757575;}
	.st35{font-family:'GothamBold';}
	.st36{font-size:35.2809px;}
	.st37{font-size:29.1095px;}
	.st38{letter-spacing:-7;}
	.st39{letter-spacing:14;}
	.st40{letter-spacing:4;}
</style>
<g>
	<g>
		<g>
			<polygon class="st0" points="35.5,7.7 15.1,38.3 15.1,17.9 			"/>
			<polygon class="st1" points="55.9,17.9 15.1,38.3 35.5,7.7 			"/>
			<polygon class="st2" points="35.5,38.3 55.9,17.9 15.1,38.3 			"/>
			<polygon class="st3" points="55.9,38.3 55.9,17.9 47.8,38.3 			"/>
			<polygon class="st4" points="35.5,38.3 47.8,38.3 55.9,17.9 			"/>
			<polygon class="st5" points="15.1,58.7 23.3,50.6 15.1,38.3 			"/>
			<polygon class="st6" points="26.2,47.6 23.3,50.6 15.1,38.3 			"/>
			<polygon class="st1" points="35.5,38.3 26.2,47.6 15.1,38.3 			"/>
			<polygon class="st4" points="35.5,69 23.3,50.6 15.1,58.7 			"/>
			<polygon class="st7" points="39.6,58.7 26.2,47.6 23.3,50.6 35.5,69 			"/>
			<polygon class="st8" points="47.8,38.3 39.6,58.7 26.2,47.6 35.5,38.3 			"/>
			<polygon class="st2" points="55.9,38.3 41.4,60.2 39.6,58.7 47.8,38.3 			"/>
			<polygon class="st9" points="35.5,69 41.4,60.2 39.6,58.7 			"/>
			<polygon class="st10" points="45.7,63.9 35.5,69 41.4,60.2 			"/>
			<polygon class="st11" points="76.3,48.5 55.9,38.3 62.7,55.3 			"/>
			<polygon class="st12" points="45.7,63.9 62.7,55.3 55.9,38.3 41.4,60.2 			"/>
			<polygon class="st13" points="15.1,79.2 35.5,69 41.4,83.5 			"/>
			<polygon class="st14" points="59.6,75.4 50.1,85 41.4,83.5 35.5,69 45.7,63.9 			"/>
			<polygon class="st15" points="62.7,55.3 67.6,67.5 59.6,75.4 45.7,63.9 			"/>
			<polygon class="st1" points="15.1,79.2 15.1,120 35.5,99.6 			"/>
			<polygon class="st16" points="50.1,85 44.3,90.8 41.4,83.5 			"/>
			<polygon class="st2" points="35.5,99.6 44.3,90.8 41.4,83.5 15.1,79.2 			"/>
			<polygon class="st17" points="15.1,120 35.5,130.2 55.9,120 42.3,106.4 			"/>
			<polygon class="st2" points="35.5,99.6 42.3,106.4 15.1,120 			"/>
			<polygon class="st18" points="55.9,99.6 55.9,120 49.1,103 			"/>
			<polygon class="st15" points="42.3,106.4 49.1,103 55.9,120 			"/>
			<polygon class="st1" points="44.3,90.8 49.1,103 42.3,106.4 35.5,99.6 			"/>
			<polygon class="st19" points="76.3,89.4 50.1,85 44.3,90.8 49.1,103 			"/>
			<polygon class="st20" points="67.6,67.5 76.3,89.4 59.6,75.4 			"/>
			<polygon class="st16" points="50.1,85 76.3,89.4 59.6,75.4 			"/>
			<polygon class="st21" points="96.7,38.3 76.3,89.4 67.6,67.5 			"/>
			<polygon class="st22" points="62.7,55.3 67.6,67.5 96.7,38.3 			"/>
			<polygon class="st23" points="137.6,79.2 137.6,120 117.2,130.2 96.7,120 			"/>
			<polygon class="st24" points="137.6,17.9 137.6,58.7 117.2,69 137.6,79.2 96.7,120 96.7,99.6 76.3,89.4 			"/>
			<polygon class="st23" points="117.2,7.7 96.7,17.9 96.7,38.3 137.6,17.9 			"/>
			<polygon class="st25" points="76.3,89.4 137.6,17.9 96.7,38.3 			"/>
		</g>
		<g>
			<polygon class="st0" points="137.6,17.9 137.6,48.5 148.7,40.2 			"/>
			<polygon class="st1" points="158,58.7 148.7,40.2 137.6,48.5 			"/>
			<polygon class="st2" points="158,33.2 148.7,40.2 137.6,17.9 			"/>
			<polygon class="st14" points="170.7,42.8 158,58.7 148.7,40.2 158,33.2 			"/>
			<polygon class="st26" points="178.4,48.5 158,58.7 170.7,42.8 			"/>
			<polygon class="st1" points="178.4,17.9 137.6,17.9 158,7.7 			"/>
			<polygon class="st11" points="164.8,28.1 158,33.2 137.6,17.9 			"/>
			<polygon class="st5" points="178.4,17.9 164.8,28.1 137.6,17.9 			"/>
			<polygon class="st12" points="170.7,42.8 178.4,33.2 164.8,28.1 158,33.2 			"/>
			<polygon class="st27" points="192,38.3 178.4,48.5 170.7,42.8 178.4,33.2 			"/>
			<polygon class="st28" points="198.8,40.9 178.4,48.5 192,38.3 			"/>
			<polygon class="st21" points="186,23.7 178.4,33.2 164.8,28.1 178.4,17.9 			"/>
			<polygon class="st29" points="198.8,7.7 186,23.7 178.4,17.9 			"/>
			<polygon class="st22" points="198.8,33.2 192,38.3 178.4,33.2 186,23.7 			"/>
			<polygon class="st30" points="205.6,38.3 198.8,40.9 192,38.3 198.8,33.2 			"/>
			<polygon class="st31" points="219.2,17.9 198.8,33.2 186,23.7 198.8,7.7 			"/>
			<polygon class="st32" points="260,17.9 205.6,38.3 198.8,33.2 219.2,17.9 239.6,7.7 			"/>
			<polygon class="st33" points="260,48.5 260,17.9 205.6,38.3 219.2,48.5 239.6,58.7 			"/>
			<polygon class="st31" points="198.8,40.9 219.2,48.5 205.6,38.3 			"/>
			<polygon class="st2" points="178.4,48.5 187.3,84.3 178.4,120 			"/>
			<polygon class="st25" points="198.8,40.9 190.8,70.3 198.8,84.3 			"/>
			<polygon class="st21" points="178.4,48.5 190.8,70.3 198.8,40.9 			"/>
			<polygon class="st32" points="219.2,48.5 198.8,84.3 198.8,40.9 			"/>
			<polygon class="st11" points="190.8,70.3 187.3,84.3 178.4,48.5 			"/>
			<polygon class="st21" points="198.8,84.3 190.8,98.2 187.3,84.3 190.8,70.3 			"/>
			<polygon class="st19" points="178.4,120 190.8,98.2 187.3,84.3 			"/>
			<polygon class="st5" points="198.8,130.2 190.8,98.2 178.4,120 			"/>
			<polygon class="st22" points="198.8,84.3 198.8,130.2 190.8,98.2 			"/>
			<polygon class="st21" points="219.2,120 198.8,130.2 198.8,84.3 			"/>
			<polygon class="st31" points="219.2,48.5 219.2,120 198.8,84.3 			"/>
		</g>
		<text transform="matrix(1 0 0 1 15.1123 163.2951)"><tspan x="0" y="0" class="st34 st35 st36">SUMMIT</tspan><tspan x="0" y="30.9" class="st34 st35 st36">2017</tspan></text>
	</g>
	<text transform="matrix(1 0 0 1 268.7261 195.2326)"><tspan x="0" y="0" class="st34 st35 st37">BANG JUN 9</tspan><tspan x="188" y="0" class="st34 st35 st37 st38">	</tspan><tspan x="189.1" y="0" class="st34 st35 st37 st39">	</tspan><tspan x="212.8" y="0" class="st34 st35 st37">|</tspan><tspan x="223" y="0" class="st34 st35 st37 st40">	</tspan><tspan x="236.4" y="0" class="st34 st35 st37">GN JUN 23</tspan></text>
</g>
</svg>
