<?xml version="1.0" encoding="utf-8"?>
<!-- Generator: Adobe Illustrator 21.0.0, SVG Export Plug-In . SVG Version: 6.00 Build 0)  -->
<svg version="1.1" id="Layer_1" xmlns="http://www.w3.org/2000/svg" xmlns:xlink="http://www.w3.org/1999/xlink" x="0px" y="0px"
	 viewBox="0 0 300 300" style="enable-background:new 0 0 300 300;" xml:space="preserve">
<style type="text/css">
	.st0{fill:#3077B0;}
	.st1{fill:#3889C5;}
	.st2{fill:#3B91CE;}
	.st3{fill:#49B0F1;}
	.st4{fill:#3A8DC9;}
	.st5{fill:#3D94D1;}
	.st6{fill:#44A4E3;}
	.st7{fill:#3E97D5;}
	.st8{fill:#419FDD;}
	.st9{fill:#42A0DF;}
	.st10{fill:#4EBDFF;}
	.st11{fill:#44A6E5;}
	.st12{fill:#3F99D7;}
	.st13{fill:#4AB3F5;}
	.st14{fill:#43A3E2;}
	.st15{fill:#47ACEC;}
	.st16{fill:#49B1F2;}
	.st17{fill:#3178B1;}
	.st18{fill:#3F98D6;}
	.st19{fill:#43A2E1;}
	.st20{fill:#44A4E4;}
	.st21{fill:#4BB7F8;}
	.st22{fill:#46AAEB;}
	.st23{fill:#59D8FF;}
	.st24{fill:#54CAFF;}
	.st25{fill:#50C1FF;}
	.st26{fill:#52C5FF;stroke:#52C5FF;stroke-linejoin:round;stroke-miterlimit:1;}
	.st27{fill:#49B0F1;stroke:#49B0F1;stroke-linejoin:round;stroke-miterlimit:1;}
	.st28{fill:#4EBCFF;stroke:#4EBCFF;stroke-linejoin:round;stroke-miterlimit:1;}
	.st29{fill:#47ADED;stroke:#47ADED;stroke-linejoin:round;stroke-miterlimit:1;}
	.st30{fill:#4BB7F8;stroke:#4BB7F8;stroke-linejoin:round;stroke-miterlimit:1;}
	.st31{fill:#50C1FF;stroke:#50C1FF;stroke-linejoin:round;stroke-miterlimit:1;}
	.st32{fill:#54CAFF;stroke:#54CAFF;stroke-linejoin:round;stroke-miterlimit:1;}
	.st33{fill:#59D8FF;stroke:#59D8FF;stroke-linejoin:round;stroke-miterlimit:1;}
	.st34{fill:#757575;}
	.st35{font-family:'GothamBold';}
	.st36{font-size:36.6091px;}
	.st37{font-size:19.5563px;}
	.st38{letter-spacing:-5;}
	.st39{letter-spacing:10;}
	.st40{letter-spacing:3;}
</style>
<g>
	<g>
		<polygon class="st0" points="30,33.4 8.9,65.1 8.9,44 		"/>
		<polygon class="st1" points="51.2,44 8.9,65.1 30,33.4 		"/>
		<polygon class="st2" points="30,65.1 51.2,44 8.9,65.1 		"/>
		<polygon class="st3" points="51.2,65.1 51.2,44 42.7,65.1 		"/>
		<polygon class="st4" points="30,65.1 42.7,65.1 51.2,44 		"/>
		<polygon class="st5" points="8.9,86.3 17.3,77.8 8.9,65.1 		"/>
		<polygon class="st6" points="20.4,74.8 17.3,77.8 8.9,65.1 		"/>
		<polygon class="st1" points="30,65.1 20.4,74.8 8.9,65.1 		"/>
		<polygon class="st4" points="30,96.9 17.3,77.8 8.9,86.3 		"/>
		<polygon class="st7" points="34.3,86.3 20.4,74.8 17.3,77.8 30,96.9 		"/>
		<polygon class="st8" points="42.7,65.1 34.3,86.3 20.4,74.8 30,65.1 		"/>
		<polygon class="st2" points="51.2,65.1 36.1,87.8 34.3,86.3 42.7,65.1 		"/>
		<polygon class="st9" points="30,96.9 36.1,87.8 34.3,86.3 		"/>
		<polygon class="st10" points="40.6,91.6 30,96.9 36.1,87.8 		"/>
		<polygon class="st11" points="72.4,75.7 51.2,65.1 58.3,82.8 		"/>
		<polygon class="st12" points="40.6,91.6 58.3,82.8 51.2,65.1 36.1,87.8 		"/>
		<polygon class="st13" points="8.9,107.5 30,96.9 36.1,112 		"/>
		<polygon class="st14" points="55.1,103.6 45.2,113.5 36.1,112 30,96.9 40.6,91.6 		"/>
		<polygon class="st15" points="58.3,82.8 63.3,95.4 55.1,103.6 40.6,91.6 		"/>
		<polygon class="st1" points="8.9,107.5 8.9,149.8 30,128.7 		"/>
		<polygon class="st16" points="45.2,113.5 39.1,119.6 36.1,112 		"/>
		<polygon class="st2" points="30,128.7 39.1,119.6 36.1,112 8.9,107.5 		"/>
		<polygon class="st17" points="8.9,149.8 30,160.4 51.2,149.8 37.1,135.7 		"/>
		<polygon class="st2" points="30,128.7 37.1,135.7 8.9,149.8 		"/>
		<polygon class="st18" points="51.2,128.7 51.2,149.8 44.2,132.2 		"/>
		<polygon class="st15" points="37.1,135.7 44.2,132.2 51.2,149.8 		"/>
		<polygon class="st1" points="39.1,119.6 44.2,132.2 37.1,135.7 30,128.7 		"/>
		<polygon class="st19" points="72.4,118.1 45.2,113.5 39.1,119.6 44.2,132.2 		"/>
		<polygon class="st20" points="63.3,95.4 72.4,118.1 55.1,103.6 		"/>
		<polygon class="st16" points="45.2,113.5 72.4,118.1 55.1,103.6 		"/>
		<polygon class="st21" points="93.6,65.1 72.4,118.1 63.3,95.4 		"/>
		<polygon class="st22" points="58.3,82.8 63.3,95.4 93.6,65.1 		"/>
		<polygon class="st23" points="135.9,107.5 135.9,149.8 114.7,160.4 93.6,149.8 		"/>
		<polygon class="st24" points="135.9,44 135.9,86.3 114.7,96.9 135.9,107.5 93.6,149.8 93.6,128.7 72.4,118.1 		"/>
		<polygon class="st23" points="114.7,33.4 93.6,44 93.6,65.1 135.9,44 		"/>
		<polygon class="st25" points="72.4,118.1 135.9,44 93.6,65.1 		"/>
	</g>
	<g>
		<polygon class="st0" points="135.9,44 135.9,75.7 147.5,67.1 		"/>
		<polygon class="st1" points="157.1,86.3 147.5,67.1 135.9,75.7 		"/>
		<polygon class="st2" points="157.1,59.8 147.5,67.1 135.9,44 		"/>
		<polygon class="st14" points="170.3,69.8 157.1,86.3 147.5,67.1 157.1,59.8 		"/>
		<polygon class="st26" points="178.3,75.7 157.1,86.3 170.3,69.8 		"/>
		<polygon class="st1" points="178.3,44 135.9,44 157.1,33.4 		"/>
		<polygon class="st11" points="164.1,54.5 157.1,59.8 135.9,44 		"/>
		<polygon class="st5" points="178.3,44 164.1,54.5 135.9,44 		"/>
		<polygon class="st12" points="170.3,69.8 178.3,59.8 164.1,54.5 157.1,59.8 		"/>
		<polygon class="st27" points="192.4,65.1 178.3,75.7 170.3,69.8 178.3,59.8 		"/>
		<polygon class="st28" points="199.4,67.8 178.3,75.7 192.4,65.1 		"/>
		<polygon class="st21" points="186.2,49.9 178.3,59.8 164.1,54.5 178.3,44 		"/>
		<polygon class="st29" points="199.4,33.4 186.2,49.9 178.3,44 		"/>
		<polygon class="st22" points="199.4,59.8 192.4,65.1 178.3,59.8 186.2,49.9 		"/>
		<polygon class="st30" points="206.5,65.1 199.4,67.8 192.4,65.1 199.4,59.8 		"/>
		<polygon class="st31" points="220.6,44 199.4,59.8 186.2,49.9 199.4,33.4 		"/>
		<polygon class="st32" points="263,44 206.5,65.1 199.4,59.8 220.6,44 241.8,33.4 		"/>
		<polygon class="st33" points="263,75.7 263,44 206.5,65.1 220.6,75.7 241.8,86.3 		"/>
		<polygon class="st31" points="199.4,67.8 220.6,75.7 206.5,65.1 		"/>
		<polygon class="st2" points="178.3,75.7 187.5,112.8 178.3,149.8 		"/>
		<polygon class="st25" points="199.4,67.8 191.2,98.3 199.4,112.8 		"/>
		<polygon class="st21" points="178.3,75.7 191.2,98.3 199.4,67.8 		"/>
		<polygon class="st32" points="220.6,75.7 199.4,112.8 199.4,67.8 		"/>
		<polygon class="st11" points="191.2,98.3 187.5,112.8 178.3,75.7 		"/>
		<polygon class="st21" points="199.4,112.8 191.2,127.3 187.5,112.8 191.2,98.3 		"/>
		<polygon class="st19" points="178.3,149.8 191.2,127.3 187.5,112.8 		"/>
		<polygon class="st5" points="199.4,160.4 191.2,127.3 178.3,149.8 		"/>
		<polygon class="st22" points="199.4,112.8 199.4,160.4 191.2,127.3 		"/>
		<polygon class="st21" points="220.6,149.8 199.4,160.4 199.4,112.8 		"/>
		<polygon class="st31" points="220.6,75.7 220.6,149.8 199.4,112.8 		"/>
	</g>
	<text transform="matrix(1 0 0 1 8.8616 194.7978)"><tspan x="0" y="0" class="st34 st35 st36">SUMMIT</tspan><tspan x="0" y="32" class="st34 st35 st36">2017</tspan></text>
	<text transform="matrix(1 0 0 1 8.8616 263.2451)"><tspan x="0" y="0" class="st34 st35 st37">BANG JUN 9</tspan><tspan x="126.3" y="0" class="st34 st35 st37 st38">	</tspan><tspan x="127.1" y="0" class="st34 st35 st37 st39">	</tspan><tspan x="143" y="0" class="st34 st35 st37">|</tspan><tspan x="149.8" y="0" class="st34 st35 st37 st40">	</tspan><tspan x="158.8" y="0" class="st34 st35 st37">GGN JUN 23</tspan></text>
</g>
</svg>
